<svg id="Ebene_1" data-name="Ebene 1" xmlns="http://www.w3.org/2000/svg" viewBox="0 0 2172.71 415.38"><defs><style>.cls-1{fill:none;stroke:#000;stroke-linejoin:round;stroke-width:32px;}</style></defs><rect class="cls-1" x="48" y="46.72" width="416" height="320" rx="28"/><rect class="cls-1" x="384" y="286.72" width="80" height="80" rx="28"/><rect class="cls-1" x="384" y="206.72" width="80" height="80" rx="28"/><rect class="cls-1" x="384" y="126.72" width="80" height="80" rx="28"/><rect class="cls-1" x="384" y="46.72" width="80" height="80" rx="28"/><rect class="cls-1" x="48" y="286.72" width="80" height="80" rx="28"/><rect class="cls-1" x="48" y="206.72" width="80" height="80" rx="28"/><rect class="cls-1" x="48" y="126.72" width="80" height="80" rx="28"/><rect class="cls-1" x="48" y="46.72" width="80" height="80" rx="28"/><rect class="cls-1" x="128" y="46.72" width="256" height="160" rx="28"/><rect class="cls-1" x="128" y="206.72" width="256" height="160" rx="28"/><path d="M650.46,100.8q-41.26,0-65,26.41t-23.7,72.32q0,47,22.35,72.92t63.92,26q27.6,0,50.71-7.06v13.51q-21.75,7.65-54.31,7.65-46.22,0-72.77-29.86t-26.56-83.42q0-33.47,12.68-59a91.7,91.7,0,0,1,36.46-39.38Q618,87,649.56,87q32.1,0,57.46,12l-6.15,13.81A111.19,111.19,0,0,0,650.46,100.8Z"/><path d="M741.83,101.1q0-14.4,9.46-14.4a8.4,8.4,0,0,1,7.27,3.75q2.63,3.75,2.63,10.65t-2.63,10.66a8.31,8.31,0,0,1-7.27,3.9Q741.83,115.66,741.83,101.1Zm17,208.41H743.93V146.41h14.86Z"/><path d="M927.13,309.51V203.73q0-24.6-10.35-35.78t-32.11-11.18q-29.25,0-42.84,14.78t-13.57,47.93v90H813.4V146.41H826l2.85,22.36h.9q15.9-25.5,56.56-25.51,55.51,0,55.52,59.57V309.51Z"/><path d="M1060.52,312.51q-35.57,0-55.44-21.91T985.2,229.24q0-39,19.2-62.49t51.77-23.49q28.8,0,45.46,20.11T1118.28,218v12H1000.8q.3,33.62,15.68,51.31t44,17.71a136.61,136.61,0,0,0,24.53-1.95q10.58-1.95,26.78-8.41v13.51a119.39,119.39,0,0,1-25.5,8.17A141.7,141.7,0,0,1,1060.52,312.51Zm-4.35-156q-23.57,0-37.81,15.53t-16.66,44.78h100.83q0-28.35-12.3-44.33T1056.17,156.47Z"/><path d="M1367.05,309.51v-107q0-23.85-9.3-34.81t-28.51-10.95q-25.07,0-37.06,13.8t-12,43.36v95.58H1265V198q0-41.26-37.81-41.26-25.65,0-37.36,14.93t-11.7,47.78v90H1163.3V146.41h12.3l3.15,22.36h.9a46.72,46.72,0,0,1,19.21-18.83,57.17,57.17,0,0,1,27.45-6.68q38.57,0,49.52,29h.6a55.37,55.37,0,0,1,21.38-21.45q13.43-7.5,30.53-7.51,26.7,0,40.06,14.26t13.35,45.31V309.51Z"/><path d="M1533.6,309.51l-3.76-25.81h-1.2q-12.3,15.75-25.28,22.28t-30.68,6.53q-24,0-37.36-12.3T1422,266.15q0-23.86,19.88-37.06t57.54-14l31-.9v-10.8q0-23.25-9.45-35.11t-30.46-11.85q-22.65,0-47,12.6l-5.55-12.9q26.85-12.6,53.11-12.61,26.86,0,40.14,14T1544.55,201V309.51Zm-60-10.5q26.1,0,41.19-14.93t15.07-41.49V226.54l-28.5,1.2q-34.36,1.65-49,10.72t-14.63,28.29q0,15.3,9.38,23.78T1473.58,299Z"/><path d="M1735.1,309.51l-21.91-60.92h-83.87l-21.45,60.92h-37.82l82.08-220.26h39l82.07,220.26Zm-31.36-91.83L1683.18,158q-2.25-6-6.22-18.91t-5.48-18.9a336.29,336.29,0,0,1-11.85,40.36l-19.81,57.16Z"/><path d="M1882.59,312.51q-31.52,0-48.92-22.66h-2.1q2.1,21,2.1,25.51v68h-35.25V143.56h28.5q1.2,4.66,5,22.21h1.79q16.51-25.2,49.52-25.21,31.05,0,48.39,22.51t17.33,63.17q0,40.65-17.63,63.46T1882.59,312.51ZM1874,169.37q-21,0-30.69,12.3T1833.67,221v5.25q0,30.3,9.61,43.88t31.36,13.58q18.3,0,28.2-15t9.91-42.76q0-27.91-9.83-42.24T1874,169.37Z"/><path d="M2074,312.51q-31.51,0-48.91-22.66H2023q2.1,21,2.1,25.51v68h-35.26V143.56h28.51q1.18,4.66,4.95,22.21h1.8q16.5-25.2,49.51-25.21,31.05,0,48.39,22.51t17.33,63.17q0,40.65-17.63,63.46T2074,312.51Zm-8.55-143.14q-21,0-30.69,12.3T2025.13,221v5.25q0,30.3,9.6,43.88t31.36,13.58q18.3,0,28.2-15t9.91-42.76q0-27.91-9.83-42.24T2065.49,169.37Z"/></svg>